<svg xmlns="http://www.w3.org/2000/svg" version="1.1" width="612pt" height="792pt" viewBox="0 0 2550 3300" data-docx-page="23">
<rect width="2550" height="3300" fill="#FFFFFF"/>
<g data-docx-path="w:body/w:p[34]">
<g data-docx-line="0" data-docx-baseline="344">
<text data-docx-path="w:body/w:p[34]/w:r[1]" x="300 321.0592 343.8639 363.2446 378.597 389.1154 413.2853 437.3657 447.7275 470.9574 494.1874 504.5492 518.4469 542.5273 566.6077 590.6881 613.4928 629.4718 654.3579 678.5278 715.1408 737.0951 761.1755 771.5373 794.7673 817.9972 841.2272 864.4572 878.3549 888.7166 902.7039 913.2222 929.2013 947.1273 962.4797 972.8414 996.9218 1018.8761 1040.45 1063.2548 1073.6165 1097.6969 1121.8669 1145.9473 1166.6931" y="344" font-family="Calibri" font-size="46" fill="#000000" xml:space="preserve">Section 10 (upperRoman 4000) first page body </text>
<text data-docx-path="w:body/w:p[34]/w:r[3]" x="1177.0549 1216.2415 1255.4281 1294.6147" y="344" font-family="Calibri" font-size="46" fill="#000000">MMMM</text>
</g>
</g>
<g data-docx-path="w:hdr/w:p[1]" data-docx-story="header" data-docx-part="word/header1.xml">
<g data-docx-line="0" data-docx-baseline="194">
<text data-docx-path="w:hdr/w:p[1]/w:r[1]" x="300 313.9872 337.2172" y="194" font-family="Calibri" font-size="46" fill="#000000">f1[</text>
<text data-docx-path="w:hdr/w:p[1]/w:r[3]" x="351.2716 391.331 431.3904 471.4498" y="194" font-family="Calibri" font-size="46" font-weight="bold" fill="#000000">MMMM</text>
<text data-docx-path="w:hdr/w:p[1]/w:r[7]" x="511.5092 525.5636 535.9253 549.9125 573.1425" y="194" font-family="Calibri" font-size="46" fill="#000000">] f2[</text>
<text data-docx-path="w:hdr/w:p[1]/w:r[9]" x="587.1969 626.3835 665.5701 704.7567" y="194" font-family="Calibri" font-size="46" font-style="italic" fill="#000000">MMMM</text>
<text data-docx-path="w:hdr/w:p[1]/w:r[13]" x="743.9433 757.9976 768.3594 782.3466 805.5766" y="194" font-family="Calibri" font-size="46" fill="#000000">] f3[</text>
<text data-docx-path="w:hdr/w:p[1]/w:r[15]" x="819.6309 859.6903 899.7498 939.8092" y="194" font-family="Calibri" font-size="46" font-weight="bold" fill="#000000">MMMM</text>
<text data-docx-path="w:hdr/w:p[1]/w:r[19]" x="979.8686 993.9229 1004.2847 1018.2719 1041.5019" y="194" font-family="Calibri" font-size="46" fill="#000000">] f4[</text>
<text data-docx-path="w:hdr/w:p[1]/w:r[21]" x="1055.5562 1094.7428 1133.9294 1173.116" y="194" font-family="Calibri" font-size="46" fill="#000000">MMMM</text>
<text data-docx-path="w:hdr/w:p[1]/w:r[23]" x="1212.3027 1226.357 1236.7188 1250.706 1273.936" y="194" font-family="Calibri" font-size="46" fill="#000000">] f5[</text>
<text data-docx-path="w:hdr/w:p[1]/w:fldSimple[1]" x="1287.9903 1327.1769 1366.3635 1405.5501" y="194" font-family="Calibri" font-size="46" fill="#000000">MMMM</text>
<text data-docx-path="w:hdr/w:p[1]/w:r[24]" x="1444.7367 1458.7911 1469.1528 1483.1401 1506.37" y="194" font-family="Calibri" font-size="46" fill="#000000">] f6[</text>
<text data-docx-path="w:hdr/w:p[1]/w:r[26]" x="1520.4244 1543.6544" y="194" font-family="Calibri" font-size="46" fill="#FF0000">28</text>
<text data-docx-path="w:hdr/w:p[1]/w:r[30]" x="1566.8844" y="194" font-family="Calibri" font-size="46" fill="#000000">]</text>
</g>
</g>
<g data-docx-path="w:ftr/w:p[1]" data-docx-story="footer" data-docx-part="word/footer11.xml">
<g data-docx-line="0" data-docx-baseline="3082">
<text data-docx-path="w:ftr/w:p[1]/w:r[1]" x="300 321.0592 343.8639 363.2446 386.4746 409.7046 420.0663 443.7439" y="3082" font-family="Calibri" font-size="46" fill="#000000">Sec10 P[</text>
<text data-docx-path="w:ftr/w:p[1]/w:r[3]" x="457.7983 496.9849 536.1715 575.3581" y="3082" font-family="Calibri" font-size="46" fill="#000000">MMMM</text>
<text data-docx-path="w:ftr/w:p[1]/w:r[7]" x="614.5447 628.599 638.9608 668.5465" y="3082" font-family="Calibri" font-size="46" fill="#000000">] N[</text>
<text data-docx-path="w:ftr/w:p[1]/w:fldSimple[1]" x="682.6009 705.8309" y="3082" font-family="Calibri" font-size="46" fill="#000000">28</text>
<text data-docx-path="w:ftr/w:p[1]/w:r[8]" x="729.0609 743.1152 753.477 774.5361" y="3082" font-family="Calibri" font-size="46" fill="#000000">] S[</text>
<text data-docx-path="w:ftr/w:p[1]/w:r[10]" x="788.5905" y="3082" font-family="Calibri" font-size="46" fill="#000000">2</text>
<text data-docx-path="w:ftr/w:p[1]/w:r[14]" x="811.8205" y="3082" font-family="Calibri" font-size="46" fill="#000000">]</text>
</g>
</g>
<g data-docx-path="w:ftr/w:p[2]" data-docx-story="footer" data-docx-part="word/footer11.xml">
<g data-docx-line="0" data-docx-baseline="3138">
<text data-docx-path="w:ftr/w:p[2]/w:r[1]" x="300 310.3617 334.4421" y="3138" font-family="Calibri" font-size="46" fill="#000000" xml:space="preserve"> d[</text>
<text data-docx-path="w:ftr/w:p[2]/w:r[3]" x="348.4965 371.7265 394.9565 418.1864" y="3138" font-family="Calibri" font-size="46" fill="#000000">4000</text>
<text data-docx-path="w:ftr/w:p[2]/w:r[7]" x="441.4164" y="3138" font-family="Calibri" font-size="46" fill="#000000">]</text>
<text data-docx-path="w:ftr/w:p[2]/w:r[8]" x="455.4708 465.8325 485.6832" y="3138" font-family="Calibri" font-size="46" fill="#000000" xml:space="preserve"> x[</text>
<text data-docx-path="w:ftr/w:p[2]/w:r[10]" x="499.7375 513.7695 524.1313 547.3612 570.5912 593.8212 617.0512 627.4129" y="3138" font-family="Calibri" font-size="46" fill="#000000">- 4000 -</text>
<text data-docx-path="w:ftr/w:p[2]/w:r[14]" x="641.4449" y="3138" font-family="Calibri" font-size="46" fill="#000000">]</text>
<text data-docx-path="w:ftr/w:p[2]/w:r[15]" x="655.4993 665.861 689.9414" y="3138" font-family="Calibri" font-size="46" fill="#000000" xml:space="preserve"> h[</text>
<text data-docx-path="w:ftr/w:p[2]/w:r[17]" x="703.9958 725.0549 751.5747" y="3138" font-family="Calibri" font-size="46" fill="#000000">FA0</text>
<text data-docx-path="w:ftr/w:p[2]/w:r[21]" x="774.8047" y="3138" font-family="Calibri" font-size="46" fill="#000000">]</text>
<text data-docx-path="w:ftr/w:p[2]/w:r[22]" x="788.859 799.2208 835.8337" y="3138" font-family="Calibri" font-size="46" fill="#000000" xml:space="preserve"> m[</text>
<text data-docx-path="w:ftr/w:p[2]/w:r[24]" x="849.8881 889.0747 928.2613 967.4479" y="3138" font-family="Calibri" font-size="46" fill="#000000">MMMM</text>
<text data-docx-path="w:ftr/w:p[2]/w:r[28]" x="1006.6345" y="3138" font-family="Calibri" font-size="46" fill="#000000">]</text>
<text data-docx-path="w:ftr/w:p[2]/w:r[29]" x="1020.6889 1031.0506 1049.1557" y="3138" font-family="Calibri" font-size="46" fill="#000000" xml:space="preserve"> z[</text>
<text data-docx-path="w:ftr/w:p[2]/w:r[31]" x="1063.21 1086.44 1109.67 1132.9" y="3138" font-family="Calibri" font-size="46" fill="#000000">4000</text>
<text data-docx-path="w:ftr/w:p[2]/w:r[35]" x="1156.13" y="3138" font-family="Calibri" font-size="46" fill="#000000">]</text>
</g>
</g>
</svg>
