<svg xmlns="http://www.w3.org/2000/svg" version="1.1" width="612pt" height="792pt" viewBox="0 0 2550 3300" data-docx-page="3">
<rect width="2550" height="3300" fill="#FFFFFF"/>
<rect x="354" y="1030" width="447" height="4" fill="#4F81BD" data-docx-path="w:body/w:tbl[1]/w:tr[1]/w:tc[1]" data-docx-kind="table-border"/>
<rect x="805" y="1030" width="446" height="4" fill="#4F81BD" data-docx-path="w:body/w:tbl[1]/w:tr[1]/w:tc[2]" data-docx-kind="table-border"/>
<rect x="1255" y="1030" width="446" height="4" fill="#4F81BD" data-docx-path="w:body/w:tbl[1]/w:tr[1]/w:tc[3]" data-docx-kind="table-border"/>
<rect x="1705" y="1030" width="446" height="4" fill="#4F81BD" data-docx-path="w:body/w:tbl[1]/w:tr[1]/w:tc[4]" data-docx-kind="table-border"/>
<rect x="350" y="1030" width="4" height="4" fill="#4F81BD" data-docx-path="w:body/w:tbl[1]/w:tr[1]/w:tc[1]" data-docx-kind="table-border"/>
<rect x="801" y="1030" width="4" height="4" fill="#4F81BD" data-docx-path="w:body/w:tbl[1]/w:tr[1]/w:tc[2]" data-docx-kind="table-border"/>
<rect x="1251" y="1030" width="4" height="4" fill="#4F81BD" data-docx-path="w:body/w:tbl[1]/w:tr[1]/w:tc[3]" data-docx-kind="table-border"/>
<rect x="1701" y="1030" width="4" height="4" fill="#4F81BD" data-docx-path="w:body/w:tbl[1]/w:tr[1]/w:tc[4]" data-docx-kind="table-border"/>
<rect x="2151" y="1030" width="4" height="4" fill="#4F81BD" data-docx-path="w:body/w:tbl[1]/w:tr[1]/w:tc[4]" data-docx-kind="table-border"/>
<rect x="350" y="1034" width="4" height="56" fill="#4F81BD" data-docx-path="w:body/w:tbl[1]/w:tr[1]/w:tc[1]" data-docx-kind="table-border"/>
<rect x="801" y="1034" width="4" height="56" fill="#4F81BD" data-docx-path="w:body/w:tbl[1]/w:tr[1]/w:tc[2]" data-docx-kind="table-border"/>
<rect x="1251" y="1034" width="4" height="56" fill="#4F81BD" data-docx-path="w:body/w:tbl[1]/w:tr[1]/w:tc[3]" data-docx-kind="table-border"/>
<rect x="1701" y="1034" width="4" height="56" fill="#4F81BD" data-docx-path="w:body/w:tbl[1]/w:tr[1]/w:tc[4]" data-docx-kind="table-border"/>
<rect x="2151" y="1034" width="4" height="56" fill="#4F81BD" data-docx-path="w:body/w:tbl[1]/w:tr[1]/w:tc[4]" data-docx-kind="table-border"/>
<rect x="354" y="1090" width="447" height="9" fill="#4F81BD" data-docx-path="w:body/w:tbl[1]/w:tr[2]/w:tc[1]" data-docx-kind="table-border"/>
<rect x="805" y="1090" width="446" height="9" fill="#4F81BD" data-docx-path="w:body/w:tbl[1]/w:tr[2]/w:tc[2]" data-docx-kind="table-border"/>
<rect x="1255" y="1090" width="446" height="9" fill="#4F81BD" data-docx-path="w:body/w:tbl[1]/w:tr[2]/w:tc[3]" data-docx-kind="table-border"/>
<rect x="1705" y="1090" width="446" height="9" fill="#4F81BD" data-docx-path="w:body/w:tbl[1]/w:tr[2]/w:tc[4]" data-docx-kind="table-border"/>
<rect x="350" y="1090" width="4" height="9" fill="#4F81BD" data-docx-path="w:body/w:tbl[1]/w:tr[2]/w:tc[1]" data-docx-kind="table-border"/>
<rect x="801" y="1090" width="4" height="9" fill="#4F81BD" data-docx-path="w:body/w:tbl[1]/w:tr[2]/w:tc[2]" data-docx-kind="table-border"/>
<rect x="1251" y="1090" width="4" height="9" fill="#4F81BD" data-docx-path="w:body/w:tbl[1]/w:tr[2]/w:tc[3]" data-docx-kind="table-border"/>
<rect x="1701" y="1090" width="4" height="9" fill="#4F81BD" data-docx-path="w:body/w:tbl[1]/w:tr[2]/w:tc[4]" data-docx-kind="table-border"/>
<rect x="2151" y="1090" width="4" height="9" fill="#4F81BD" data-docx-path="w:body/w:tbl[1]/w:tr[2]/w:tc[4]" data-docx-kind="table-border"/>
<rect x="350" y="1099" width="4" height="108" fill="#4F81BD" data-docx-path="w:body/w:tbl[1]/w:tr[2]/w:tc[1]" data-docx-kind="table-border"/>
<rect x="801" y="1099" width="4" height="108" fill="#4F81BD" data-docx-path="w:body/w:tbl[1]/w:tr[2]/w:tc[2]" data-docx-kind="table-border"/>
<rect x="1251" y="1099" width="4" height="108" fill="#4F81BD" data-docx-path="w:body/w:tbl[1]/w:tr[2]/w:tc[3]" data-docx-kind="table-border"/>
<rect x="1701" y="1099" width="4" height="108" fill="#4F81BD" data-docx-path="w:body/w:tbl[1]/w:tr[2]/w:tc[4]" data-docx-kind="table-border"/>
<rect x="2151" y="1099" width="4" height="108" fill="#4F81BD" data-docx-path="w:body/w:tbl[1]/w:tr[2]/w:tc[4]" data-docx-kind="table-border"/>
<rect x="354" y="1207" width="447" height="4" fill="#4F81BD" data-docx-path="w:body/w:tbl[1]/w:tr[3]/w:tc[1]" data-docx-kind="table-border"/>
<rect x="805" y="1207" width="446" height="4" fill="#4F81BD" data-docx-path="w:body/w:tbl[1]/w:tr[3]/w:tc[2]" data-docx-kind="table-border"/>
<rect x="1255" y="1207" width="446" height="4" fill="#4F81BD" data-docx-path="w:body/w:tbl[1]/w:tr[3]/w:tc[3]" data-docx-kind="table-border"/>
<rect x="1705" y="1207" width="446" height="4" fill="#4F81BD" data-docx-path="w:body/w:tbl[1]/w:tr[3]/w:tc[4]" data-docx-kind="table-border"/>
<rect x="350" y="1207" width="4" height="4" fill="#4F81BD" data-docx-path="w:body/w:tbl[1]/w:tr[3]/w:tc[1]" data-docx-kind="table-border"/>
<rect x="801" y="1207" width="4" height="4" fill="#4F81BD" data-docx-path="w:body/w:tbl[1]/w:tr[3]/w:tc[2]" data-docx-kind="table-border"/>
<rect x="1251" y="1207" width="4" height="4" fill="#4F81BD" data-docx-path="w:body/w:tbl[1]/w:tr[3]/w:tc[3]" data-docx-kind="table-border"/>
<rect x="1701" y="1207" width="4" height="4" fill="#4F81BD" data-docx-path="w:body/w:tbl[1]/w:tr[3]/w:tc[4]" data-docx-kind="table-border"/>
<rect x="2151" y="1207" width="4" height="4" fill="#4F81BD" data-docx-path="w:body/w:tbl[1]/w:tr[3]/w:tc[4]" data-docx-kind="table-border"/>
<rect x="350" y="1211" width="4" height="107" fill="#4F81BD" data-docx-path="w:body/w:tbl[1]/w:tr[3]/w:tc[1]" data-docx-kind="table-border"/>
<rect x="801" y="1211" width="4" height="107" fill="#4F81BD" data-docx-path="w:body/w:tbl[1]/w:tr[3]/w:tc[2]" data-docx-kind="table-border"/>
<rect x="1251" y="1211" width="4" height="107" fill="#4F81BD" data-docx-path="w:body/w:tbl[1]/w:tr[3]/w:tc[3]" data-docx-kind="table-border"/>
<rect x="1701" y="1211" width="4" height="107" fill="#4F81BD" data-docx-path="w:body/w:tbl[1]/w:tr[3]/w:tc[4]" data-docx-kind="table-border"/>
<rect x="2151" y="1211" width="4" height="107" fill="#4F81BD" data-docx-path="w:body/w:tbl[1]/w:tr[3]/w:tc[4]" data-docx-kind="table-border"/>
<rect x="354" y="1318" width="447" height="4" fill="#4F81BD" data-docx-path="w:body/w:tbl[1]/w:tr[4]/w:tc[1]" data-docx-kind="table-border"/>
<rect x="805" y="1318" width="446" height="4" fill="#4F81BD" data-docx-path="w:body/w:tbl[1]/w:tr[4]/w:tc[2]" data-docx-kind="table-border"/>
<rect x="1255" y="1318" width="446" height="4" fill="#4F81BD" data-docx-path="w:body/w:tbl[1]/w:tr[4]/w:tc[3]" data-docx-kind="table-border"/>
<rect x="1705" y="1318" width="446" height="4" fill="#4F81BD" data-docx-path="w:body/w:tbl[1]/w:tr[4]/w:tc[4]" data-docx-kind="table-border"/>
<rect x="350" y="1318" width="4" height="4" fill="#4F81BD" data-docx-path="w:body/w:tbl[1]/w:tr[4]/w:tc[1]" data-docx-kind="table-border"/>
<rect x="801" y="1318" width="4" height="4" fill="#4F81BD" data-docx-path="w:body/w:tbl[1]/w:tr[4]/w:tc[2]" data-docx-kind="table-border"/>
<rect x="1251" y="1318" width="4" height="4" fill="#4F81BD" data-docx-path="w:body/w:tbl[1]/w:tr[4]/w:tc[3]" data-docx-kind="table-border"/>
<rect x="1701" y="1318" width="4" height="4" fill="#4F81BD" data-docx-path="w:body/w:tbl[1]/w:tr[4]/w:tc[4]" data-docx-kind="table-border"/>
<rect x="2151" y="1318" width="4" height="4" fill="#4F81BD" data-docx-path="w:body/w:tbl[1]/w:tr[4]/w:tc[4]" data-docx-kind="table-border"/>
<rect x="350" y="1322" width="4" height="56" fill="#4F81BD" data-docx-path="w:body/w:tbl[1]/w:tr[4]/w:tc[1]" data-docx-kind="table-border"/>
<rect x="801" y="1322" width="4" height="56" fill="#4F81BD" data-docx-path="w:body/w:tbl[1]/w:tr[4]/w:tc[2]" data-docx-kind="table-border"/>
<rect x="1251" y="1322" width="4" height="56" fill="#4F81BD" data-docx-path="w:body/w:tbl[1]/w:tr[4]/w:tc[3]" data-docx-kind="table-border"/>
<rect x="1701" y="1322" width="4" height="56" fill="#4F81BD" data-docx-path="w:body/w:tbl[1]/w:tr[4]/w:tc[4]" data-docx-kind="table-border"/>
<rect x="2151" y="1322" width="4" height="56" fill="#4F81BD" data-docx-path="w:body/w:tbl[1]/w:tr[4]/w:tc[4]" data-docx-kind="table-border"/>
<rect x="354" y="1378" width="447" height="4" fill="#4F81BD" data-docx-path="w:body/w:tbl[1]/w:tr[5]/w:tc[1]" data-docx-kind="table-border"/>
<rect x="805" y="1378" width="446" height="4" fill="#4F81BD" data-docx-path="w:body/w:tbl[1]/w:tr[5]/w:tc[2]" data-docx-kind="table-border"/>
<rect x="1255" y="1378" width="446" height="4" fill="#4F81BD" data-docx-path="w:body/w:tbl[1]/w:tr[5]/w:tc[3]" data-docx-kind="table-border"/>
<rect x="1705" y="1378" width="446" height="4" fill="#4F81BD" data-docx-path="w:body/w:tbl[1]/w:tr[5]/w:tc[4]" data-docx-kind="table-border"/>
<rect x="350" y="1378" width="4" height="5" fill="#4F81BD" data-docx-path="w:body/w:tbl[1]/w:tr[5]/w:tc[1]" data-docx-kind="table-border"/>
<rect x="801" y="1378" width="4" height="5" fill="#4F81BD" data-docx-path="w:body/w:tbl[1]/w:tr[5]/w:tc[2]" data-docx-kind="table-border"/>
<rect x="1251" y="1378" width="4" height="5" fill="#4F81BD" data-docx-path="w:body/w:tbl[1]/w:tr[5]/w:tc[3]" data-docx-kind="table-border"/>
<rect x="1701" y="1378" width="4" height="5" fill="#4F81BD" data-docx-path="w:body/w:tbl[1]/w:tr[5]/w:tc[4]" data-docx-kind="table-border"/>
<rect x="2151" y="1378" width="4" height="5" fill="#4F81BD" data-docx-path="w:body/w:tbl[1]/w:tr[5]/w:tc[4]" data-docx-kind="table-border"/>
<rect x="350" y="1383" width="4" height="107" fill="#4F81BD" data-docx-path="w:body/w:tbl[1]/w:tr[5]/w:tc[1]" data-docx-kind="table-border"/>
<rect x="801" y="1383" width="4" height="107" fill="#4F81BD" data-docx-path="w:body/w:tbl[1]/w:tr[5]/w:tc[2]" data-docx-kind="table-border"/>
<rect x="1251" y="1383" width="4" height="107" fill="#4F81BD" data-docx-path="w:body/w:tbl[1]/w:tr[5]/w:tc[3]" data-docx-kind="table-border"/>
<rect x="1701" y="1383" width="4" height="107" fill="#4F81BD" data-docx-path="w:body/w:tbl[1]/w:tr[5]/w:tc[4]" data-docx-kind="table-border"/>
<rect x="2151" y="1383" width="4" height="107" fill="#4F81BD" data-docx-path="w:body/w:tbl[1]/w:tr[5]/w:tc[4]" data-docx-kind="table-border"/>
<rect x="354" y="1490" width="447" height="4" fill="#4F81BD" data-docx-path="w:body/w:tbl[1]/w:tr[6]/w:tc[1]" data-docx-kind="table-border"/>
<rect x="805" y="1490" width="446" height="4" fill="#4F81BD" data-docx-path="w:body/w:tbl[1]/w:tr[6]/w:tc[2]" data-docx-kind="table-border"/>
<rect x="1255" y="1490" width="446" height="4" fill="#4F81BD" data-docx-path="w:body/w:tbl[1]/w:tr[6]/w:tc[3]" data-docx-kind="table-border"/>
<rect x="1705" y="1490" width="446" height="4" fill="#4F81BD" data-docx-path="w:body/w:tbl[1]/w:tr[6]/w:tc[4]" data-docx-kind="table-border"/>
<rect x="350" y="1490" width="4" height="4" fill="#4F81BD" data-docx-path="w:body/w:tbl[1]/w:tr[6]/w:tc[1]" data-docx-kind="table-border"/>
<rect x="801" y="1490" width="4" height="4" fill="#4F81BD" data-docx-path="w:body/w:tbl[1]/w:tr[6]/w:tc[2]" data-docx-kind="table-border"/>
<rect x="1251" y="1490" width="4" height="4" fill="#4F81BD" data-docx-path="w:body/w:tbl[1]/w:tr[6]/w:tc[3]" data-docx-kind="table-border"/>
<rect x="1701" y="1490" width="4" height="4" fill="#4F81BD" data-docx-path="w:body/w:tbl[1]/w:tr[6]/w:tc[4]" data-docx-kind="table-border"/>
<rect x="2151" y="1490" width="4" height="4" fill="#4F81BD" data-docx-path="w:body/w:tbl[1]/w:tr[6]/w:tc[4]" data-docx-kind="table-border"/>
<rect x="350" y="1494" width="4" height="108" fill="#4F81BD" data-docx-path="w:body/w:tbl[1]/w:tr[6]/w:tc[1]" data-docx-kind="table-border"/>
<rect x="801" y="1494" width="4" height="108" fill="#4F81BD" data-docx-path="w:body/w:tbl[1]/w:tr[6]/w:tc[2]" data-docx-kind="table-border"/>
<rect x="1251" y="1494" width="4" height="108" fill="#4F81BD" data-docx-path="w:body/w:tbl[1]/w:tr[6]/w:tc[3]" data-docx-kind="table-border"/>
<rect x="1701" y="1494" width="4" height="108" fill="#4F81BD" data-docx-path="w:body/w:tbl[1]/w:tr[6]/w:tc[4]" data-docx-kind="table-border"/>
<rect x="2151" y="1494" width="4" height="108" fill="#4F81BD" data-docx-path="w:body/w:tbl[1]/w:tr[6]/w:tc[4]" data-docx-kind="table-border"/>
<rect x="354" y="1602" width="447" height="4" fill="#4F81BD" data-docx-path="w:body/w:tbl[1]/w:tr[7]/w:tc[1]" data-docx-kind="table-border"/>
<rect x="805" y="1602" width="446" height="4" fill="#4F81BD" data-docx-path="w:body/w:tbl[1]/w:tr[7]/w:tc[2]" data-docx-kind="table-border"/>
<rect x="1255" y="1602" width="446" height="4" fill="#4F81BD" data-docx-path="w:body/w:tbl[1]/w:tr[7]/w:tc[3]" data-docx-kind="table-border"/>
<rect x="1705" y="1602" width="446" height="4" fill="#4F81BD" data-docx-path="w:body/w:tbl[1]/w:tr[7]/w:tc[4]" data-docx-kind="table-border"/>
<rect x="350" y="1602" width="4" height="4" fill="#4F81BD" data-docx-path="w:body/w:tbl[1]/w:tr[7]/w:tc[1]" data-docx-kind="table-border"/>
<rect x="801" y="1602" width="4" height="4" fill="#4F81BD" data-docx-path="w:body/w:tbl[1]/w:tr[7]/w:tc[2]" data-docx-kind="table-border"/>
<rect x="1251" y="1602" width="4" height="4" fill="#4F81BD" data-docx-path="w:body/w:tbl[1]/w:tr[7]/w:tc[3]" data-docx-kind="table-border"/>
<rect x="1701" y="1602" width="4" height="4" fill="#4F81BD" data-docx-path="w:body/w:tbl[1]/w:tr[7]/w:tc[4]" data-docx-kind="table-border"/>
<rect x="2151" y="1602" width="4" height="4" fill="#4F81BD" data-docx-path="w:body/w:tbl[1]/w:tr[7]/w:tc[4]" data-docx-kind="table-border"/>
<rect x="350" y="1606" width="4" height="107" fill="#4F81BD" data-docx-path="w:body/w:tbl[1]/w:tr[7]/w:tc[1]" data-docx-kind="table-border"/>
<rect x="801" y="1606" width="4" height="107" fill="#4F81BD" data-docx-path="w:body/w:tbl[1]/w:tr[7]/w:tc[2]" data-docx-kind="table-border"/>
<rect x="1251" y="1606" width="4" height="107" fill="#4F81BD" data-docx-path="w:body/w:tbl[1]/w:tr[7]/w:tc[3]" data-docx-kind="table-border"/>
<rect x="1701" y="1606" width="4" height="107" fill="#4F81BD" data-docx-path="w:body/w:tbl[1]/w:tr[7]/w:tc[4]" data-docx-kind="table-border"/>
<rect x="2151" y="1606" width="4" height="107" fill="#4F81BD" data-docx-path="w:body/w:tbl[1]/w:tr[7]/w:tc[4]" data-docx-kind="table-border"/>
<rect x="354" y="1713" width="447" height="4" fill="#4F81BD" data-docx-path="w:body/w:tbl[1]/w:tr[7]/w:tc[1]" data-docx-kind="table-border"/>
<rect x="805" y="1713" width="446" height="4" fill="#4F81BD" data-docx-path="w:body/w:tbl[1]/w:tr[7]/w:tc[2]" data-docx-kind="table-border"/>
<rect x="1255" y="1713" width="446" height="4" fill="#4F81BD" data-docx-path="w:body/w:tbl[1]/w:tr[7]/w:tc[3]" data-docx-kind="table-border"/>
<rect x="1705" y="1713" width="446" height="4" fill="#4F81BD" data-docx-path="w:body/w:tbl[1]/w:tr[7]/w:tc[4]" data-docx-kind="table-border"/>
<rect x="350" y="1713" width="4" height="4" fill="#4F81BD" data-docx-path="w:body/w:tbl[1]/w:tr[7]/w:tc[1]" data-docx-kind="table-border"/>
<rect x="801" y="1713" width="4" height="4" fill="#4F81BD" data-docx-path="w:body/w:tbl[1]/w:tr[7]/w:tc[2]" data-docx-kind="table-border"/>
<rect x="1251" y="1713" width="4" height="4" fill="#4F81BD" data-docx-path="w:body/w:tbl[1]/w:tr[7]/w:tc[3]" data-docx-kind="table-border"/>
<rect x="1701" y="1713" width="4" height="4" fill="#4F81BD" data-docx-path="w:body/w:tbl[1]/w:tr[7]/w:tc[4]" data-docx-kind="table-border"/>
<rect x="2151" y="1713" width="4" height="4" fill="#4F81BD" data-docx-path="w:body/w:tbl[1]/w:tr[7]/w:tc[4]" data-docx-kind="table-border"/>
<rect x="1705" y="1494" width="445" height="108" fill="#D3DFEE" data-docx-path="w:body/w:tbl[1]/w:tr[6]/w:tc[4]" data-docx-kind="cell-shading"/>
<rect x="1255" y="1494" width="445" height="108" fill="#D3DFEE" data-docx-path="w:body/w:tbl[1]/w:tr[6]/w:tc[3]" data-docx-kind="cell-shading"/>
<rect x="805" y="1494" width="445" height="108" fill="#D3DFEE" data-docx-path="w:body/w:tbl[1]/w:tr[6]/w:tc[2]" data-docx-kind="cell-shading"/>
<rect x="355" y="1494" width="445" height="108" fill="#D3DFEE" data-docx-path="w:body/w:tbl[1]/w:tr[6]/w:tc[1]" data-docx-kind="cell-shading"/>
<rect x="1705" y="1322" width="445" height="56" fill="#D3DFEE" data-docx-path="w:body/w:tbl[1]/w:tr[4]/w:tc[4]" data-docx-kind="cell-shading"/>
<rect x="1255" y="1322" width="445" height="56" fill="#D3DFEE" data-docx-path="w:body/w:tbl[1]/w:tr[4]/w:tc[3]" data-docx-kind="cell-shading"/>
<rect x="805" y="1322" width="445" height="56" fill="#D3DFEE" data-docx-path="w:body/w:tbl[1]/w:tr[4]/w:tc[2]" data-docx-kind="cell-shading"/>
<rect x="355" y="1322" width="445" height="56" fill="#D3DFEE" data-docx-path="w:body/w:tbl[1]/w:tr[4]/w:tc[1]" data-docx-kind="cell-shading"/>
<rect x="1705" y="1099" width="445" height="108" fill="#D3DFEE" data-docx-path="w:body/w:tbl[1]/w:tr[2]/w:tc[4]" data-docx-kind="cell-shading"/>
<rect x="1255" y="1099" width="445" height="108" fill="#D3DFEE" data-docx-path="w:body/w:tbl[1]/w:tr[2]/w:tc[3]" data-docx-kind="cell-shading"/>
<rect x="805" y="1099" width="445" height="108" fill="#D3DFEE" data-docx-path="w:body/w:tbl[1]/w:tr[2]/w:tc[2]" data-docx-kind="cell-shading"/>
<rect x="355" y="1099" width="445" height="108" fill="#D3DFEE" data-docx-path="w:body/w:tbl[1]/w:tr[2]/w:tc[1]" data-docx-kind="cell-shading"/>
<g data-docx-path="w:body/w:p[32]">
<g data-docx-line="0" data-docx-baseline="356">
<text data-docx-path="w:body/w:p[32]/w:r[1]" x="375 402.5716 433.8745 481.3273 528.7801 557.5765 578.3122 605.9408 619.1284 647.9248 679.2277 710.5306 723.7183 756.5592 785.9253 804.3823 833.7484 854.484 883.8501 915.153 939.563 968.929" y="356" font-family="Calibri" font-size="58" font-weight="bold" fill="#365F91">Summary and References</text>
</g>
</g>
<g data-docx-path="w:body/w:p[33]">
<g data-docx-line="0" data-docx-baseline="476">
<text data-docx-path="w:body/w:p[33]/w:r[1]" x="375 404.6224 431.8909 457.546 469.7917 496.6105 523.35 549.349 576.6174 603.3569 643.7174 670.4569 696.1121" y="476" font-family="Calibri" font-size="54" font-weight="bold" fill="#4F81BD">Key Takeaways</text>
</g>
</g>
<g data-docx-path="w:body/w:p[34]">
<g data-docx-line="0" data-docx-baseline="544">
<text data-docx-path="w:body/w:p[34]/w:r[1]" x="375 399.5951 412.3291 424.7721 447.1293 457.2225 471.0978 495.4244 514.3799 552.5146 574.8942 590.4032 600.4964 620.7052 645.0317 670.6116 693.7073 716.0645 735.0199 754.7139 767.4479 791.7745 817.3543 827.4475 840.1815 859.8755 869.9687 892.3482 917.9281 928.0212 950.3784 970.0724 989.7664 1012.1236 1037.7035 1053.2125 1065.9465 1088.326 1100.769 1110.8622 1131.071 1153.4505 1178.9408 1201.3204 1226.4079 1239.1418 1251.5849 1264.3188 1279.8279 1302.9236 1313.0168 1326.8921 1351.2187 1370.1742 1380.2673 1418.4021 1442.7287 1468.1519 1490.509 1509.4645 1535.0444 1545.1375 1570.5607 1583.2947 1605.9428 1618.6768 1634.1858 1656.5653 1669.0084 1679.1016 1714.5955 1738.9221 1757.8776 1781.9132 1795.7886 1808.2316 1832.5582 1868.0522 1887.7462 1897.1456" y="544" font-family="Cambria" font-size="46" fill="#000000" xml:space="preserve">File format conversion is an essential capability for modern digital workflows. </text>
</g>
<g data-docx-line="1" data-docx-baseline="605">
<text data-docx-path="w:body/w:p[34]/w:r[1]" x="375 404.6977 430.2775 455.7007 478.0579 497.0133 516.7074 532.2164 554.5959 580.1758 605.599 618.3329 643.9128 666.5609 676.6541 692.1631 717.452 739.8092 749.9023 769.5964 785.1054 804.0609 826.4181 851.9979 874.646 890.155 915.4439 935.1379 945.2311 967.6107 993.1905 1018.6137 1028.7069 1041.1499 1053.8839 1092.0186 1104.7526 1120.2616 1142.6412 1158.1502 1170.8842 1195.2108 1220.7906 1240.4846 1250.5778 1274.9044 1288.7797 1298.8729 1321.2301 1343.6096 1363.8184 1389.1073 1399.2004 1413.0758 1437.4023 1456.3578 1494.4926 1516.8722 1532.3812 1542.4744 1567.7633 1590.1204 1602.5635 1628.0538 1647.7478 1657.841 1683.1523 1702.8463 1725.2035 1744.1589 1763.8529 1773.9461 1794.1549 1819.4438 1843.7703 1868.0969 1887.7909 1910.1481 1920.2413 1935.7503 1961.0392 1983.3964 1993.4896 2012.4451 2025.179 2047.8271 2073.116 2088.6251" y="605" font-family="Cambria" font-size="46" fill="#000000" xml:space="preserve">Understanding the strengths and limitations of each format helps users choose the right </text>
</g>
<g data-docx-line="2" data-docx-baseline="667">
<text data-docx-path="w:body/w:p[34]/w:r[1]" x="375 395.2087 419.5353 445.1152 468.2109 490.568 509.5235 529.2175 541.9515 566.2781 591.8579 601.9511 627.4414 649.821 665.33 690.6189" y="667" font-family="Cambria" font-size="46" fill="#000000">conversion path.</text>
</g>
</g>
<g data-docx-path="w:body/w:p[35]">
<g data-docx-line="0" data-docx-baseline="771">
<text data-docx-path="w:body/w:p[35]/w:r[1]" x="375 403.4668 425.824 438.267 451.001 473.3805 498.468 510.9111 533.2682 543.3614 563.5701 587.8967 613.4766 636.5723 658.9294 677.8849 697.5789 710.3129 734.6395 760.2193 770.3125 785.8215 810.1481 834.4747 846.9177 866.6117 876.0111 886.1043 911.1918 933.5714 953.7801 977.8158 1000.1729 1025.5961 1035.6893 1060.7768 1083.8725 1093.9657 1109.4747 1134.7636 1159.0902 1178.0457 1202.3722 1227.6835 1250.3316 1275.6205 1285.7137 1301.2227 1323.5799 1343.2739 1358.783 1371.5169 1397.0968 1419.7449 1429.8381 1465.332 1478.066 1493.575 1518.8639 1528.9571 1554.3803 1567.1143 1590.21 1612.5671 1631.5226 1651.2166 1673.5738 1683.667 1703.361 1725.7406 1763.8753 1789.3656 1801.8087 1824.1659 1834.259 1848.1344 1860.8683 1873.3114 1895.6685 1915.3625 1924.762 1934.8551 1957.2123 1982.7922 2002.4862 2027.7974 2046.7529 2069.1101 2079.2033 2094.7123 2120.0012 2142.3808 2157.8898" y="771" font-family="Cambria" font-size="46" fill="#000000" xml:space="preserve">Reliable conversion tools, backed by thorough testing with diverse sample files, ensure that </text>
</g>
<g data-docx-line="1" data-docx-baseline="832">
<text data-docx-path="w:body/w:p[35]/w:r[1]" x="375 400.4232 424.7498 444.9585 470.2698 508.4045 530.7617 556.3416 571.8506 591.5446 601.6378 620.5933 642.9504 658.4595 680.839 693.573 719.1528 729.246 744.755 770.0439 792.4011 805.1351 824.0906 834.1838 846.9177 872.4976 888.0066 910.3638 935.9436 961.3668 983.724 1009.1471 1019.2403 1041.6199 1067.1102 1092.6005 1114.9577 1137.3372 1156.2927 1178.6723 1204.2521 1224.4609 1246.818 1256.9112 1279.2908 1304.8706 1330.2938 1340.387 1360.5957 1384.9223 1410.5021 1426.0111 1448.3683 1473.9482 1489.4572 1499.5504 1515.0594 1540.3483 1559.3038 1583.6304 1608.9417 1631.5898 1656.8787 1681.2052 1706.5165 1722.0256 1732.1187 1747.6278 1772.9167 1795.2738 1805.367 1825.5758 1849.9023 1875.4822 1898.5779 1920.9351 1939.8905 1959.5846 1972.3185 1996.6451 2022.2249" y="832" font-family="Cambria" font-size="46" fill="#000000" xml:space="preserve">documents retain their intended appearance and content throughout the conversion </text>
</g>
<g data-docx-line="2" data-docx-baseline="894">
<text data-docx-path="w:body/w:p[35]/w:r[1]" x="375 400.4903 419.4458 443.7724 463.9811 486.3383 506.0323 525.7263" y="894" font-family="Cambria" font-size="46" fill="#000000">process.</text>
</g>
</g>
<g data-docx-path="w:body/w:p[36]">
<g data-docx-line="0" data-docx-baseline="1006">
<text data-docx-path="w:body/w:p[36]/w:r[1]" x="375 399.8617 428.9815 448.2361 492.2994 519.0389 537.8174 550.0631 578.7333 607.8532 651.9165 680.9835 707.723 726.9775 740.2812 761.8896 791.0095 820.0765 832.3222 859.141 885.8805 914.9475 928.2511" y="1006" font-family="Calibri" font-size="54" font-weight="bold" fill="#4F81BD">Format Comparison Table</text>
</g>
</g>
<g data-docx-path="w:body/w:tbl[1]/w:tr[1]/w:tc[1]/w:p[1]">
<g data-docx-line="0" data-docx-baseline="1078">
<text data-docx-path="w:body/w:tbl[1]/w:tr[1]/w:tc[1]/w:p[1]/w:r[1]" x="375 396.0368 420.6767 436.969 474.2533 496.8791" y="1078" font-family="Calibri" font-size="46" font-weight="bold" fill="#000000">Format</text>
</g>
</g>
<g data-docx-path="w:body/w:tbl[1]/w:tr[1]/w:tc[2]/w:p[1]">
<g data-docx-line="0" data-docx-baseline="1078">
<text data-docx-path="w:body/w:tbl[1]/w:tr[1]/w:tc[2]/w:p[1]/w:r[1]" x="825 847.6929 869.401 893.9962" y="1078" font-family="Calibri" font-size="46" font-weight="bold" fill="#000000">Type</text>
</g>
</g>
<g data-docx-path="w:body/w:tbl[1]/w:tr[1]/w:tc[3]/w:p[1]">
<g data-docx-line="0" data-docx-baseline="1078">
<text data-docx-path="w:body/w:tbl[1]/w:tr[1]/w:tc[3]/w:p[1]/w:r[1]" x="1275 1299.2594 1323.8993 1361.1837 1385.7788 1402.0711 1425.1444 1443.4285 1461.7126 1472.9696 1497.6095" y="1078" font-family="Calibri" font-size="46" font-weight="bold" fill="#000000">Compression</text>
</g>
</g>
<g data-docx-path="w:body/w:tbl[1]/w:tr[1]/w:tc[4]/w:p[1]">
<g data-docx-line="0" data-docx-baseline="1078">
<text data-docx-path="w:body/w:tbl[1]/w:tr[1]/w:tc[4]/w:p[1]/w:r[1]" x="1725 1750.6917 1773.7651 1792.0492 1807.9386 1818.3004 1839.3372 1863.9771" y="1078" font-family="Calibri" font-size="46" font-weight="bold" fill="#000000">Best For</text>
</g>
</g>
<g data-docx-path="w:body/w:tbl[1]/w:tr[2]/w:tc[1]/w:p[1]">
<g data-docx-line="0" data-docx-baseline="1143">
<text data-docx-path="w:body/w:tbl[1]/w:tr[2]/w:tc[1]/w:p[1]/w:r[1]" x="375 403.892 434.8877 459.1471" y="1143" font-family="Calibri" font-size="46" font-weight="bold" fill="#000000">DOCX</text>
</g>
</g>
<g data-docx-path="w:body/w:tbl[1]/w:tr[2]/w:tc[2]/w:p[1]">
<g data-docx-line="0" data-docx-baseline="1143">
<text data-docx-path="w:body/w:tbl[1]/w:tr[2]/w:tc[2]/w:p[1]/w:r[1]" x="825 855.3243 879.6509 899.8596 925.1709 963.3057 985.6628 1011.2427" y="1143" font-family="Cambria" font-size="46" fill="#000000">Document</text>
</g>
</g>
<g data-docx-path="w:body/w:tbl[1]/w:tr[2]/w:tc[3]/w:p[1]">
<g data-docx-line="0" data-docx-baseline="1143">
<text data-docx-path="w:body/w:tbl[1]/w:tr[2]/w:tc[3]/w:p[1]/w:r[1]" x="1275 1299.6399 1314.4999 1340.5273 1362.9964 1389.1805 1426.5544" y="1143" font-family="Cambria" font-size="46" fill="#000000">ZIP/XML</text>
</g>
</g>
<g data-docx-path="w:body/w:tbl[1]/w:tr[2]/w:tc[4]/w:p[1]">
<g data-docx-line="0" data-docx-baseline="1143">
<text data-docx-path="w:body/w:tbl[1]/w:tr[2]/w:tc[4]/w:p[1]/w:r[1]" x="1725 1751.3631 1776.7863 1789.5203 1805.0293 1827.4089 1852.4963 1864.9394 1887.2965 1897.3897 1912.8988 1935.2559 1957.4117 1972.9207" y="1143" font-family="Cambria" font-size="46" fill="#000000" xml:space="preserve">Editable text </text>
</g>
<g data-docx-line="1" data-docx-baseline="1197">
<text data-docx-path="w:body/w:tbl[1]/w:tr[2]/w:tc[4]/w:p[1]/w:r[1]" x="1725 1750.4232 1774.7498 1794.9585 1820.2698 1858.4045 1880.7617 1906.3416 1921.8506" y="1197" font-family="Cambria" font-size="46" fill="#000000">documents</text>
</g>
</g>
<g data-docx-path="w:body/w:tbl[1]/w:tr[3]/w:tc[1]/w:p[1]">
<g data-docx-line="0" data-docx-baseline="1255">
<text data-docx-path="w:body/w:tbl[1]/w:tr[3]/w:tc[1]/w:p[1]/w:r[1]" x="375 399.3937 428.2857" y="1255" font-family="Calibri" font-size="46" font-weight="bold" fill="#000000">PDF</text>
</g>
</g>
<g data-docx-path="w:body/w:tbl[1]/w:tr[3]/w:tc[2]/w:p[1]">
<g data-docx-line="0" data-docx-baseline="1255">
<text data-docx-path="w:body/w:tbl[1]/w:tr[3]/w:tc[2]/w:p[1]/w:r[1]" x="825 855.3243 879.6509 899.8596 925.1709 963.3057 985.6628 1011.2427" y="1255" font-family="Cambria" font-size="46" fill="#000000">Document</text>
</g>
</g>
<g data-docx-path="w:body/w:tbl[1]/w:tr[3]/w:tc[3]/w:p[1]">
<g data-docx-line="0" data-docx-baseline="1255">
<text data-docx-path="w:body/w:tbl[1]/w:tr[3]/w:tc[3]/w:p[1]/w:r[1]" x="1275 1302.6611 1325.0407 1343.9962 1356.7301 1381.0567 1406.368" y="1255" font-family="Cambria" font-size="46" fill="#000000">Various</text>
</g>
</g>
<g data-docx-path="w:body/w:tbl[1]/w:tr[3]/w:tc[4]/w:p[1]">
<g data-docx-line="0" data-docx-baseline="1255">
<text data-docx-path="w:body/w:tbl[1]/w:tr[3]/w:tc[4]/w:p[1]/w:r[1]" x="1725 1751.0274 1775.354 1794.3095 1809.8185 1832.1981 1857.2856 1869.7286 1892.0858 1902.179 1921.1344 1943.4916 1965.8712 1991.2944 2006.5125 2030.839 2056.4189 2068.8619 2091.9576" y="1255" font-family="Cambria" font-size="46" fill="#000000" xml:space="preserve">Portable read-only </text>
</g>
<g data-docx-line="1" data-docx-baseline="1308">
<text data-docx-path="w:body/w:tbl[1]/w:tr[3]/w:tc[4]/w:p[1]/w:r[1]" x="1725 1738.8753 1751.6093 1764.0523 1786.4095" y="1308" font-family="Cambria" font-size="46" fill="#000000">files</text>
</g>
</g>
<g data-docx-path="w:body/w:tbl[1]/w:tr[4]/w:tc[1]/w:p[1]">
<g data-docx-line="0" data-docx-baseline="1366">
<text data-docx-path="w:body/w:tbl[1]/w:tr[4]/w:tc[1]/w:p[1]/w:r[1]" x="375 390.1733 414.5671 436.9242" y="1366" font-family="Calibri" font-size="46" font-weight="bold" fill="#000000">JPEG</text>
</g>
</g>
<g data-docx-path="w:body/w:tbl[1]/w:tr[4]/w:tc[2]/w:p[1]">
<g data-docx-line="0" data-docx-baseline="1366">
<text data-docx-path="w:body/w:tbl[1]/w:tr[4]/w:tc[2]/w:p[1]/w:r[1]" x="825 839.86 877.9948 900.3743 923.0225" y="1366" font-family="Cambria" font-size="46" fill="#000000">Image</text>
</g>
</g>
<g data-docx-path="w:body/w:tbl[1]/w:tr[4]/w:tc[3]/w:p[1]">
<g data-docx-line="0" data-docx-baseline="1366">
<text data-docx-path="w:body/w:tbl[1]/w:tr[4]/w:tc[3]/w:p[1]/w:r[1]" x="1275 1299.5951 1323.9217 1343.6157 1363.3097" y="1366" font-family="Cambria" font-size="46" fill="#000000">Lossy</text>
</g>
</g>
<g data-docx-path="w:body/w:tbl[1]/w:tr[4]/w:tc[4]/w:p[1]">
<g data-docx-line="0" data-docx-baseline="1366">
<text data-docx-path="w:body/w:tbl[1]/w:tr[4]/w:tc[4]/w:p[1]/w:r[1]" x="1725 1751.0274 1776.3163 1800.6429 1816.1519 1840.4785 1863.1266 1882.0821 1904.4617 1929.952 1955.2409" y="1366" font-family="Cambria" font-size="46" fill="#000000">Photographs</text>
</g>
</g>
<g data-docx-path="w:body/w:tbl[1]/w:tr[5]/w:tc[1]/w:p[1]">
<g data-docx-line="0" data-docx-baseline="1427">
<text data-docx-path="w:body/w:tbl[1]/w:tr[5]/w:tc[1]/w:p[1]/w:r[1]" x="375 399.3937 429.5837" y="1427" font-family="Calibri" font-size="46" font-weight="bold" fill="#000000">PNG</text>
</g>
</g>
<g data-docx-path="w:body/w:tbl[1]/w:tr[5]/w:tc[2]/w:p[1]">
<g data-docx-line="0" data-docx-baseline="1426">
<text data-docx-path="w:body/w:tbl[1]/w:tr[5]/w:tc[2]/w:p[1]/w:r[1]" x="825 839.86 877.9948 900.3743 923.0225" y="1426" font-family="Cambria" font-size="46" fill="#000000">Image</text>
</g>
</g>
<g data-docx-path="w:body/w:tbl[1]/w:tr[5]/w:tc[3]/w:p[1]">
<g data-docx-line="0" data-docx-baseline="1426">
<text data-docx-path="w:body/w:tbl[1]/w:tr[5]/w:tc[3]/w:p[1]/w:r[1]" x="1275 1299.5951 1323.9217 1343.6157 1363.3097 1375.7528 1398.1099 1417.804" y="1426" font-family="Cambria" font-size="46" fill="#000000">Lossless</text>
</g>
</g>
<g data-docx-path="w:body/w:tbl[1]/w:tr[5]/w:tc[4]/w:p[1]">
<g data-docx-line="0" data-docx-baseline="1426">
<text data-docx-path="w:body/w:tbl[1]/w:tr[5]/w:tc[4]/w:p[1]/w:r[1]" x="1725 1752.9968 1771.9523 1794.3319 1819.8222 1845.1111 1857.8451 1878.0538 1897.7478 1907.841 1943.335 1956.0689 1971.578 1996.8669" y="1426" font-family="Cambria" font-size="46" fill="#000000" xml:space="preserve">Graphics with </text>
</g>
<g data-docx-line="1" data-docx-baseline="1480">
<text data-docx-path="w:body/w:tbl[1]/w:tr[5]/w:tc[4]/w:p[1]/w:r[1]" x="1725 1740.509 1759.4645 1781.8441 1807.4239 1827.1179 1852.6082 1874.9878 1893.9433 1916.3005 1941.8803 1962.089" y="1480" font-family="Cambria" font-size="46" fill="#000000">transparency</text>
</g>
</g>
<g data-docx-path="w:body/w:tbl[1]/w:tr[6]/w:tc[1]/w:p[1]">
<g data-docx-line="0" data-docx-baseline="1538">
<text data-docx-path="w:body/w:tbl[1]/w:tr[6]/w:tc[1]/w:p[1]/w:r[1]" x="375 415.0594 439.4531" y="1538" font-family="Calibri" font-size="46" font-weight="bold" fill="#000000">MP4</text>
</g>
</g>
<g data-docx-path="w:body/w:tbl[1]/w:tr[6]/w:tc[2]/w:p[1]">
<g data-docx-line="0" data-docx-baseline="1538">
<text data-docx-path="w:body/w:tbl[1]/w:tr[6]/w:tc[2]/w:p[1]/w:r[1]" x="825 852.6611 865.3951 890.8183 913.1755" y="1538" font-family="Cambria" font-size="46" fill="#000000">Video</text>
</g>
</g>
<g data-docx-path="w:body/w:tbl[1]/w:tr[6]/w:tc[3]/w:p[1]">
<g data-docx-line="0" data-docx-baseline="1538">
<text data-docx-path="w:body/w:tbl[1]/w:tr[6]/w:tc[3]/w:p[1]/w:r[1]" x="1275 1306.4657 1315.8651 1341.2435 1366.6219 1392.0003 1414.4694 1443.0257 1471.582" y="1538" font-family="Cambria" font-size="46" fill="#000000">H.264/AAC</text>
</g>
</g>
<g data-docx-path="w:body/w:tbl[1]/w:tr[6]/w:tc[4]/w:p[1]">
<g data-docx-line="0" data-docx-baseline="1538">
<text data-docx-path="w:body/w:tbl[1]/w:tr[6]/w:tc[4]/w:p[1]/w:r[1]" x="1725 1754.6977 1780.2775 1793.0115 1816.1072 1838.4644 1857.4198 1877.1139 1899.4934 1911.9364 1922.0296 1945.1253 1957.8593 1983.2825 2005.6396 2029.9662" y="1538" font-family="Cambria" font-size="46" fill="#000000" xml:space="preserve">Universal video </text>
</g>
<g data-docx-line="1" data-docx-baseline="1592">
<text data-docx-path="w:body/w:tbl[1]/w:tr[6]/w:tc[4]/w:p[1]/w:r[1]" x="1725 1750.4903 1762.9333 1785.3129 1808.4086 1833.4961 1855.8757 1876.0844" y="1592" font-family="Cambria" font-size="46" fill="#000000">playback</text>
</g>
</g>
<g data-docx-path="w:body/w:tbl[1]/w:tr[7]/w:tc[1]/w:p[1]">
<g data-docx-line="0" data-docx-baseline="1650">
<text data-docx-path="w:body/w:tbl[1]/w:tr[7]/w:tc[1]/w:p[1]/w:r[1]" x="375 397.3572 421.7509 451.6724" y="1650" font-family="Calibri" font-size="46" font-weight="bold" fill="#000000">EPUB</text>
</g>
</g>
<g data-docx-path="w:body/w:tbl[1]/w:tr[7]/w:tc[2]/w:p[1]">
<g data-docx-line="0" data-docx-baseline="1650">
<text data-docx-path="w:body/w:tbl[1]/w:tr[7]/w:tc[2]/w:p[1]/w:r[1]" x="825 847.3572 875.3764 899.703 924.0295" y="1650" font-family="Cambria" font-size="46" fill="#000000">eBook</text>
</g>
</g>
<g data-docx-path="w:body/w:tbl[1]/w:tr[7]/w:tc[3]/w:p[1]">
<g data-docx-line="0" data-docx-baseline="1650">
<text data-docx-path="w:body/w:tbl[1]/w:tr[7]/w:tc[3]/w:p[1]/w:r[1]" x="1275 1299.6399 1314.4999 1340.5273 1362.9964 1389.1805 1420.6462 1447.8149 1485.1888" y="1650" font-family="Cambria" font-size="46" fill="#000000">ZIP/XHTML</text>
</g>
</g>
<g data-docx-path="w:body/w:tbl[1]/w:tr[7]/w:tc[4]/w:p[1]">
<g data-docx-line="0" data-docx-baseline="1650">
<text data-docx-path="w:body/w:tbl[1]/w:tr[7]/w:tc[4]/w:p[1]/w:r[1]" x="1725 1753.4668 1775.824 1789.6993 1802.1423 1826.4689 1861.9629 1884.3424 1909.4299 1921.873 1944.2301 1954.3233 1979.7465 1992.4805 2015.1286 2027.8625 2043.3716 2065.7511 2078.1942" y="1650" font-family="Cambria" font-size="46" fill="#000000" xml:space="preserve">Reflowable digital </text>
</g>
<g data-docx-line="1" data-docx-baseline="1703">
<text data-docx-path="w:body/w:tbl[1]/w:tr[7]/w:tc[4]/w:p[1]/w:r[1]" x="1725 1750.0875 1774.4141 1798.7406 1822.7763" y="1703" font-family="Cambria" font-size="46" fill="#000000">books</text>
</g>
</g>
<g data-docx-path="w:body/w:p[37]">
<g data-docx-line="0" data-docx-baseline="1811">
<text data-docx-path="w:body/w:p[37]/w:r[1]" x="375 405.4952 432.7637 455.4301 484.55 528.6133 572.6766 599.9451 629.012 658.079 685.3475 714.4145 726.6602 755.3304 784.4503 813.5173 839.1459 866.4144 885.6689 907.2774 920.5811 949.7009 978.7679 991.0136 1040.1021 1069.222 1088.4766 1114.4755 1131.6142 1144.9178 1174.0377" y="1811" font-family="Calibri" font-size="54" font-weight="bold" fill="#4F81BD">Recommended Conversion Workflow</text>
</g>
</g>
<g data-docx-path="w:body/w:p[38]">
<g data-docx-line="0" data-docx-baseline="1879">
<text data-docx-path="w:body/w:p[38]/label" x="375 400.3784" y="1879" font-family="Cambria" font-size="46" fill="#000000" data-docx-kind="label">1.</text>
<text data-docx-path="w:body/w:p[38]/w:r[1]" x="450 464.86 490.2832 512.6404 538.2202 553.7292 566.4632 580.3385 603.4342 613.5274 629.0365 654.3254 676.6825 686.7757 706.4697 730.7963 756.1076 775.0631 795.2718 817.629 827.7222 841.5975 865.9241 884.8796 923.0143 945.3939 960.9029 970.9961 993.3757 1018.9555 1044.3787 1054.4718 1077.5675 1099.9247 1118.8802 1131.6142 1145.4895 1168.5852 1178.6784 1194.1874 1219.4763 1241.8335 1251.9267 1265.802 1278.536 1290.979 1313.3362 1323.4294 1336.1633 1355.8573 1365.9505 1391.5304 1415.8569 1431.366 1441.4591 1461.6679 1485.9945 1504.95 1523.9054 1549.2167 1574.707 1590.2161 1612.5732 1637.9964" y="1879" font-family="Cambria" font-size="46" fill="#000000">Identify the source format and verify the file is not corrupted.</text>
</g>
</g>
<g data-docx-path="w:body/w:p[39]">
<g data-docx-line="0" data-docx-baseline="1941">
<text data-docx-path="w:body/w:p[39]/label" x="375 400.3784" y="1941" font-family="Cambria" font-size="46" fill="#000000" data-docx-kind="label">2.</text>
<text data-docx-path="w:body/w:p[39]/w:r[1]" x="450 472.7376 495.0948 507.5378 529.895 550.1038 565.6128 575.706 591.215 616.5039 638.8611 648.9543 664.4633 686.8429 705.7983 728.4465 750.8036 766.3127 776.4058 790.2812 814.6077 833.5632 871.698 894.0776 909.5866 919.6798 944.7673 967.1468 986.8408 1009.198 1034.6212 1044.7144 1069.0409 1094.6208 1104.7139 1120.223 1145.5119 1167.8691 1177.9622 1190.6962 1216.276 1231.7851 1254.1423 1279.7221 1305.1453 1327.5024 1352.9256 1363.0188 1388.3301 1408.0241 1430.3813 1440.4744 1460.6832 1483.0627 1502.7568 1525.1139" y="1941" font-family="Cambria" font-size="46" fill="#000000">Select the target format based on the intended use case.</text>
</g>
</g>
<g data-docx-path="w:body/w:p[40]">
<g data-docx-line="0" data-docx-baseline="2003">
<text data-docx-path="w:body/w:p[40]/label" x="375 400.3784" y="2003" font-family="Cambria" font-size="46" fill="#000000" data-docx-kind="label">3.</text>
<text data-docx-path="w:body/w:p[40]/w:r[1]" x="450 475.7813 501.0701 525.3967 549.7233 569.4173 591.7745 601.8677 622.0764 646.403 671.9828 695.0785 717.4357 736.3912 756.0852 768.8192 793.1458 818.7256 828.8188 848.5128 870.87 886.379 901.888 914.622 940.2018 962.8499 982.5439 992.6371 1012.3311 1037.6424 1057.8512 1083.1401 1093.2332 1115.6128 1135.3068 1145.4 1170.4651 1195.7764 1218.1559 1230.599 1243.3329 1258.842 1281.9377 1291.3371 1301.4303 1320.3857 1342.7429 1362.4369 1386.7635 1399.2065 1424.5178 1440.0269 1452.7608 1477.0874 1502.6672 1512.0667 1522.1598 1546.4864 1565.4419 1575.5351 1601.0254 1623.4049 1646.0531 1668.4102 1678.5034 1697.4589 1719.8385 1745.4183 1768.0664 1790.4236" y="2003" font-family="Cambria" font-size="46" fill="#000000">Choose conversion settings such as quality, resolution, or page range.</text>
</g>
</g>
<g data-docx-path="w:body/w:p[41]">
<g data-docx-line="0" data-docx-baseline="2065">
<text data-docx-path="w:body/w:p[41]/label" x="375 400.3784" y="2065" font-family="Cambria" font-size="46" fill="#000000" data-docx-kind="label">4.</text>
<text data-docx-path="w:body/w:p[41]/w:r[1]" x="450 478.4668 503.7781 529.3579 539.4511 554.9601 580.249 602.6062 612.6994 632.9081 657.2347 682.8145 705.9102 728.2674 747.2229 766.9169 779.6509 803.9775 829.5573 839.6505 862.03 887.6099 913.033 923.1262 942.0817 964.4389 987.5346 1000.2686 1022.6257 1058.1197 1068.2129 1083.7219 1109.0108 1131.368 1141.4612 1165.7878 1191.099 1206.6081 1232.0984 1257.4097 1272.9187 1283.0119 1296.8872 1321.2138 1340.1693 1350.2625 1372.642 1392.8507 1413.0595 1438.3708 1457.3263 1479.7058 1499.9146 1523.0103" y="2065" font-family="Cambria" font-size="46" fill="#000000">Run the conversion and review the output for accuracy.</text>
</g>
</g>
<g data-docx-path="w:body/w:p[42]">
<g data-docx-line="0" data-docx-baseline="2126">
<text data-docx-path="w:body/w:p[42]/label" x="375 400.3784" y="2126" font-family="Cambria" font-size="46" fill="#000000" data-docx-kind="label">5.</text>
<text data-docx-path="w:body/w:p[42]/w:r[1]" x="450 478.5563 497.5118 517.7205 543.0094 555.7434 578.8391 601.1963 611.2895 636.377 660.7035 676.2126 701.5015 711.5946 727.1037 752.3926 774.7498 784.8429 804.5369 828.8635 854.1748 873.1303 893.339 915.6962 925.7894 948.1689 973.7488 999.172 1009.2651 1029.4739 1053.8005 1079.3803 1102.476 1124.8332 1143.7887 1159.2977 1181.6549 1207.078 1217.1712 1231.0465 1243.7805 1256.2236 1278.5807 1298.2747 1308.3679 1322.2432 1346.5698 1365.5253 1375.6185 1389.4938 1414.8051 1430.3141 1455.6254 1474.5809 1496.9381 1507.0313 1525.9867 1548.3439 1562.2192 1584.5764 1603.5319 1625.8891 1651.4689 1671.6777 1694.0348" y="2126" font-family="Cambria" font-size="46" fill="#000000">Archive both the source and converted files for future reference.</text>
</g>
</g>
</svg>
