<svg xmlns="http://www.w3.org/2000/svg" version="1.1" width="595.2pt" height="841.92pt" viewBox="0 0 2480 3508" data-docx-page="1">
<rect width="2480" height="3508" fill="#FFFFFF"/>
<g data-docx-path="w:body/w:p[1]">
<g data-docx-line="0" data-docx-baseline="355">
<text data-docx-path="w:body/w:p[1]/w:r[1]" x="300 335.3475 350.9277 364.1154 379.6672 410.9701 442.2729 471.639 502.9419 523.1649 536.3525 550.6795 579.4759 610.7788 642.0817 671.4478" y="355" font-family="Calibri" font-size="58" font-weight="bold" fill="#000000">A. Indent ladder</text>
</g>
</g>
<g data-docx-path="w:body/w:p[2]">
<g data-docx-line="0" data-docx-baseline="415">
<text data-docx-path="w:body/w:p[2]/w:r[1]" x="300 328.5563 338.9181 349.4364 373.5168 397.5972 420.402 444.4824 459.8348 470.1965" y="415" font-family="Calibri" font-size="46" fill="#000000">H indent 0</text>
</g>
</g>
<g data-docx-path="w:body/w:p[3]">
<g data-docx-line="0" data-docx-baseline="471">
<text data-docx-path="w:body/w:p[3]/w:r[1]" x="375 403.5563 413.9181 424.4364 448.5168 472.5972 495.402 519.4824 534.8348 545.1965 568.4265 591.6565" y="471" font-family="Calibri" font-size="46" fill="#000000">H indent 360</text>
</g>
</g>
<g data-docx-path="w:body/w:p[4]">
<g data-docx-line="0" data-docx-baseline="527">
<text data-docx-path="w:body/w:p[4]/w:r[1]" x="450 478.5563 488.9181 499.4364 523.5168 547.5972 570.402 594.4824 609.8348 620.1965 643.4265 666.6565" y="527" font-family="Calibri" font-size="46" fill="#000000">H indent 720</text>
</g>
</g>
<g data-docx-path="w:body/w:p[5]">
<g data-docx-line="0" data-docx-baseline="583">
<text data-docx-path="w:body/w:p[5]/w:r[1]" x="525 553.5563 563.9181 574.4364 598.5168 622.5972 645.402 669.4824 684.8348 695.1965 718.4265 741.6565 764.8865" y="583" font-family="Calibri" font-size="46" fill="#000000">H indent 1080</text>
</g>
</g>
<g data-docx-path="w:body/w:p[6]">
<g data-docx-line="0" data-docx-baseline="639">
<text data-docx-path="w:body/w:p[6]/w:r[1]" x="600 628.5563 638.9181 649.4364 673.5168 697.5972 720.402 744.4824 759.8348 770.1965 793.4265 816.6565 839.8865" y="639" font-family="Calibri" font-size="46" fill="#000000">H indent 1440</text>
</g>
</g>
<g data-docx-path="w:body/w:p[7]">
<g data-docx-line="0" data-docx-baseline="706">
<text data-docx-path="w:body/w:p[7]/w:r[1]" x="300 332.6986 348.2788 361.4665 390.3483 419.1447 450.4476 463.6353 477.9622 506.7586 538.0615 569.3644 598.7305" y="706" font-family="Calibri" font-size="58" font-weight="bold" fill="#000000">B. Tab ladder</text>
</g>
</g>
<g data-docx-path="w:body/w:p[8]">
<g data-docx-line="0" data-docx-baseline="766">
<text data-docx-path="w:body/w:p[8]/w:r[1]" x="300" y="766" font-family="Calibri" font-size="46" fill="#000000">H</text>
<text data-docx-path="w:body/w:p[8]/w:r[3]" x="600" y="766" font-family="Calibri" font-size="46" fill="#000000">H</text>
<text data-docx-path="w:body/w:p[8]/w:r[5]" x="900" y="766" font-family="Calibri" font-size="46" fill="#000000">H</text>
<text data-docx-path="w:body/w:p[8]/w:r[7]" x="1200" y="766" font-family="Calibri" font-size="46" fill="#000000">H</text>
</g>
</g>
<g data-docx-path="w:body/w:p[9]">
<g data-docx-line="0" data-docx-baseline="833">
<text data-docx-path="w:body/w:p[9]/w:r[1]" x="300 330.8757 346.4559 359.6436 394.991 409.318 423.645 451.3021 482.605 530.0578 559.4238 590.7267" y="833" font-family="Calibri" font-size="58" font-weight="bold" fill="#000000">C. Alignment</text>
</g>
</g>
<g data-docx-path="w:body/w:p[10]">
<g data-docx-line="0" data-docx-baseline="893">
<text data-docx-path="w:body/w:p[10]/w:r[1]" x="300 328.5563 339.0747 361.8795 375.8667 391.2191" y="893" font-family="Calibri" font-size="46" fill="#000000">HleftH</text>
</g>
</g>
<g data-docx-path="w:body/w:p[11]">
<g data-docx-line="0" data-docx-baseline="949">
<text data-docx-path="w:body/w:p[11]/w:r[1]" x="1151.4506 1180.0069 1199.3876 1222.1924 1246.2728 1261.6252 1284.4299 1300.4089" y="949" font-family="Calibri" font-size="46" fill="#000000">HcenterH</text>
</g>
</g>
<g data-docx-path="w:body/w:p[12]">
<g data-docx-line="0" data-docx-baseline="1005">
<text data-docx-path="w:body/w:p[12]/w:r[1]" x="2035.8002 2064.3565 2080.3355 2090.8539 2112.4278 2136.5082 2151.8606" y="1005" font-family="Calibri" font-size="46" fill="#000000">HrightH</text>
</g>
</g>
<g data-docx-path="w:body/w:p[13]">
<g data-docx-line="0" data-docx-baseline="1072">
<text data-docx-path="w:body/w:p[13]/w:r[1]" x="300 336.7716 352.3519 365.5396 418.4041 439.1398 467.9362 499.2391 530.542 544.869 576.1719" y="1072" font-family="Calibri" font-size="58" font-weight="bold" fill="#000000">D. Wrapping</text>
</g>
</g>
<g data-docx-path="w:body/w:p[14]">
<g data-docx-line="0" data-docx-baseline="1132">
<text data-docx-path="w:body/w:p[14]/w:r[1]" x="300 319.2688 329.7872 353.8676 376.6724 387.0341 411.1145 427.0935 449.8983 471.8526 492.688 503.2064 527.2868 548.8607 559.2224 569.7408 587.6668 598.0286 613.3809 637.4613 660.2661 670.6278 684.6151 695.1335 711.1125 729.0385 744.3909 754.7526 770.105 794.1854 804.7038 828.7842 850.3581 860.7198 882.6742 893.0359 925.7996 949.9695 965.9485 990.0289 1000.3906 1024.471 1040.45 1064.62 1084.0007 1106.8054 1124.7314 1142.6575 1166.8274 1182.8064 1193.1681 1217.2485 1241.4185 1264.2232 1282.1493 1292.511 1307.8634 1331.9438 1353.8981 1369.2505 1379.6122 1401.5666 1411.9283 1429.8543 1440.3727 1450.8911 1474.9715 1497.7763 1508.138 1524.117 1546.9218 1571.0022 1595.0826 1617.8874 1633.8664 1656.6711 1672.6501 1683.0119 1707.0923 1729.8971 1750.5981 1773.4029 1789.3819 1799.7437 1823.8241 1845.7784 1863.7044 1874.0662 1889.4185 1913.5885 1923.9502 1948.0306 1972.2005 1983.6365 1993.9982 2015.9526 2040.033 2064.1134 2074.4751 2084.9935 2100.3459 2110.7076 2121.226 2139.152" y="1132" font-family="Calibri" font-size="46" fill="#000000" xml:space="preserve">Line breaking is the first thing a word processor does that a slide renderer never has to do, and it is </text>
</g>
<g data-docx-line="1" data-docx-baseline="1188">
<text data-docx-path="w:body/w:p[14]/w:r[1]" x="300 315.3524 339.4328 362.2375 372.5993 388.5783 411.3831 433.3374 451.2634 475.4333 499.5138 509.8755 525.2279 549.3083 559.8267 577.7527 588.1144 612.1948 628.1738 652.3438 663.3097 686.1145 705.4952 720.8476 731.2093 754.0141 773.8647 784.3831 802.3092 817.6615 835.5876 845.9493 867.9036 885.8297 896.1914 918.1458 928.5075 946.4335 956.9519 981.0323 991.5507 1002.0691 1026.1495 1047.7234 1058.0851 1074.0641 1096.0185 1111.3708 1135.4513 1158.256 1174.235 1184.5968 1199.9491 1224.0295 1245.9839 1270.0643 1280.426 1302.3804 1312.7421 1326.7293 1349.5341 1371.4884 1386.8408 1410.9212 1426.9002 1449.705 1461.2752 1471.637 1498.1567 1508.5185 1526.4445 1550.5249 1572.4792 1596.5597 1619.3644 1629.7262 1653.8066 1677.9765 1695.9025 1706.4209 1721.7733 1732.2917 1756.4616 1780.542 1798.468 1808.8298 1819.3481 1834.7005 1852.6265 1862.9883 1878.3407 1901.1454 1920.9961 1936.3485 1946.7102 1970.7906 1994.9605 2014.8112 2025.1729 2047.1273 2071.2077 2095.2881" y="1188" font-family="Calibri" font-size="46" fill="#000000" xml:space="preserve">the reason this project exists as a sibling rather than a feature. A shape positions its text box and </text>
</g>
<g data-docx-line="2" data-docx-baseline="1244">
<text data-docx-path="w:body/w:p[14]/w:r[1]" x="300 315.3524 339.4328 362.2375 386.318 396.6797 410.6669 421.1853 436.5377 454.4637 464.8254 480.1778 502.9826 522.8333 538.1856 548.5474 559.0658 583.1462 601.0722 611.5906 635.671 658.4757 668.8375 679.3559 694.7083 706.9722 717.334 739.2883 749.6501 773.7305 797.9004 817.2811 841.3615 877.9744 900.7792 924.8596 940.212 950.5737 974.6541 996.6085 1014.5345 1024.8962 1048.9766 1073.1466 1083.5083 1107.5887 1131.7586 1151.6093 1174.4141 1192.3401 1202.7018 1224.6562 1240.0085 1250.3703 1272.3246 1282.843 1293.3614 1304.7974 1315.1591 1339.329 1363.4094 1373.9278 1394.6737 1405.0354 1426.9897 1437.3515 1456.7322 1480.9021 1491.4205 1515.5009 1552.1139 1576.1943 1586.556 1608.5103 1632.5907 1656.6711 1667.0329 1688.9872 1699.349 1717.275 1740.0798 1764.1602 1788.2406 1811.0453 1835.1257 1854.5064 1877.3112 1887.6729 1911.8429 1925.8301 1936.1918 1952.1708 1976.2512 2000.3316 2018.2576 2029.6936 2040.0553 2062.0097 2086.0901 2110.1705" y="1244" font-family="Calibri" font-size="46" fill="#000000" xml:space="preserve">then fits text inside it; a document has no boxes at all, only a column and a sequence of runs, and </text>
</g>
<g data-docx-line="3" data-docx-baseline="1300">
<text data-docx-path="w:body/w:p[14]/w:r[1]" x="300 322.8048 343.5059 366.3106 382.2896 403.0355 413.3972 423.9156 434.434 458.5144 481.3192 491.6809 502.1993 520.1253 530.4871 552.4414 562.8031 586.8835 609.6883 629.069 639.5874 657.5134 668.0318 692.2017 716.2821 726.6439 748.5982 772.6786 796.8486 820.929 836.2813 846.6431 879.4067 903.4871 926.2919 942.2709 965.0757 975.4374 990.7898 1014.8702 1037.675 1048.0367 1072.1171 1088.0961 1110.9009 1131.602 1142.1204 1166.2903 1190.3707 1208.2967 1218.6584 1242.8284 1266.9088 1289.7135 1300.0753 1322.88 1346.9604 1371.0409 1393.8456 1417.926" y="1300" font-family="Calibri" font-size="46" fill="#000000">every line is a decision about where the previous one ended.</text>
</g>
</g>
<g data-docx-path="w:body/w:p[15]">
<g data-docx-line="0" data-docx-baseline="1367">
<text data-docx-path="w:body/w:p[15]/w:r[1]" x="300 328.4546 344.0348 357.2225 388.269 417.0654 444.7225 459.0495 490.3524 519.1488 539.3717 553.6987 585.0586" y="1367" font-family="Calibri" font-size="58" font-weight="bold" fill="#000000">E. Pagination</text>
</g>
</g>
<g data-docx-path="w:body/w:p[16]">
<g data-docx-line="0" data-docx-baseline="1427">
<text data-docx-path="w:body/w:p[16]/w:r[1]" x="300 319.2688 342.4988" y="1427" font-family="Calibri" font-size="46" fill="#000000">L01</text>
</g>
</g>
<g data-docx-path="w:body/w:p[17]">
<g data-docx-line="0" data-docx-baseline="1483">
<text data-docx-path="w:body/w:p[17]/w:r[1]" x="300 319.2688 342.4988" y="1483" font-family="Calibri" font-size="46" fill="#000000">L02</text>
</g>
</g>
<g data-docx-path="w:body/w:p[18]">
<g data-docx-line="0" data-docx-baseline="1539">
<text data-docx-path="w:body/w:p[18]/w:r[1]" x="300 319.2688 342.4988" y="1539" font-family="Calibri" font-size="46" fill="#000000">L03</text>
</g>
</g>
<g data-docx-path="w:body/w:p[19]">
<g data-docx-line="0" data-docx-baseline="1595">
<text data-docx-path="w:body/w:p[19]/w:r[1]" x="300 319.2688 342.4988" y="1595" font-family="Calibri" font-size="46" fill="#000000">L04</text>
</g>
</g>
<g data-docx-path="w:body/w:p[20]">
<g data-docx-line="0" data-docx-baseline="1651">
<text data-docx-path="w:body/w:p[20]/w:r[1]" x="300 319.2688 342.4988" y="1651" font-family="Calibri" font-size="46" fill="#000000">L05</text>
</g>
</g>
<g data-docx-path="w:body/w:p[21]">
<g data-docx-line="0" data-docx-baseline="1707">
<text data-docx-path="w:body/w:p[21]/w:r[1]" x="300 319.2688 342.4988" y="1707" font-family="Calibri" font-size="46" fill="#000000">L06</text>
</g>
</g>
<g data-docx-path="w:body/w:p[22]">
<g data-docx-line="0" data-docx-baseline="1763">
<text data-docx-path="w:body/w:p[22]/w:r[1]" x="300 319.2688 342.4988" y="1763" font-family="Calibri" font-size="46" fill="#000000">L07</text>
</g>
</g>
<g data-docx-path="w:body/w:p[23]">
<g data-docx-line="0" data-docx-baseline="1819">
<text data-docx-path="w:body/w:p[23]/w:r[1]" x="300 319.2688 342.4988" y="1819" font-family="Calibri" font-size="46" fill="#000000">L08</text>
</g>
</g>
<g data-docx-path="w:body/w:p[24]">
<g data-docx-line="0" data-docx-baseline="1875">
<text data-docx-path="w:body/w:p[24]/w:r[1]" x="300 319.2688 342.4988" y="1875" font-family="Calibri" font-size="46" fill="#000000">L09</text>
</g>
</g>
<g data-docx-path="w:body/w:p[25]">
<g data-docx-line="0" data-docx-baseline="1931">
<text data-docx-path="w:body/w:p[25]/w:r[1]" x="300 319.2688 342.4988" y="1931" font-family="Calibri" font-size="46" fill="#000000">L10</text>
</g>
</g>
<g data-docx-path="w:body/w:p[26]">
<g data-docx-line="0" data-docx-baseline="1987">
<text data-docx-path="w:body/w:p[26]/w:r[1]" x="300 319.2688 342.4988" y="1987" font-family="Calibri" font-size="46" fill="#000000">L11</text>
</g>
</g>
<g data-docx-path="w:body/w:p[27]">
<g data-docx-line="0" data-docx-baseline="2043">
<text data-docx-path="w:body/w:p[27]/w:r[1]" x="300 319.2688 342.4988" y="2043" font-family="Calibri" font-size="46" fill="#000000">L12</text>
</g>
</g>
<g data-docx-path="w:body/w:p[28]">
<g data-docx-line="0" data-docx-baseline="2099">
<text data-docx-path="w:body/w:p[28]/w:r[1]" x="300 319.2688 342.4988" y="2099" font-family="Calibri" font-size="46" fill="#000000">L13</text>
</g>
</g>
<g data-docx-path="w:body/w:p[29]">
<g data-docx-line="0" data-docx-baseline="2155">
<text data-docx-path="w:body/w:p[29]/w:r[1]" x="300 319.2688 342.4988" y="2155" font-family="Calibri" font-size="46" fill="#000000">L14</text>
</g>
</g>
<g data-docx-path="w:body/w:p[30]">
<g data-docx-line="0" data-docx-baseline="2211">
<text data-docx-path="w:body/w:p[30]/w:r[1]" x="300 319.2688 342.4988" y="2211" font-family="Calibri" font-size="46" fill="#000000">L15</text>
</g>
</g>
<g data-docx-path="w:body/w:p[31]">
<g data-docx-line="0" data-docx-baseline="2267">
<text data-docx-path="w:body/w:p[31]/w:r[1]" x="300 319.2688 342.4988" y="2267" font-family="Calibri" font-size="46" fill="#000000">L16</text>
</g>
</g>
<g data-docx-path="w:body/w:p[32]">
<g data-docx-line="0" data-docx-baseline="2323">
<text data-docx-path="w:body/w:p[32]/w:r[1]" x="300 319.2688 342.4988" y="2323" font-family="Calibri" font-size="46" fill="#000000">L17</text>
</g>
</g>
<g data-docx-path="w:body/w:p[33]">
<g data-docx-line="0" data-docx-baseline="2378">
<text data-docx-path="w:body/w:p[33]/w:r[1]" x="300 319.2688 342.4988" y="2378" font-family="Calibri" font-size="46" fill="#000000">L18</text>
</g>
</g>
<g data-docx-path="w:body/w:p[34]">
<g data-docx-line="0" data-docx-baseline="2434">
<text data-docx-path="w:body/w:p[34]/w:r[1]" x="300 319.2688 342.4988" y="2434" font-family="Calibri" font-size="46" fill="#000000">L19</text>
</g>
</g>
<g data-docx-path="w:body/w:p[35]">
<g data-docx-line="0" data-docx-baseline="2490">
<text data-docx-path="w:body/w:p[35]/w:r[1]" x="300 319.2688 342.4988" y="2490" font-family="Calibri" font-size="46" fill="#000000">L20</text>
</g>
</g>
<g data-docx-path="w:body/w:p[36]">
<g data-docx-line="0" data-docx-baseline="2546">
<text data-docx-path="w:body/w:p[36]/w:r[1]" x="300 319.2688 342.4988" y="2546" font-family="Calibri" font-size="46" fill="#000000">L21</text>
</g>
</g>
<g data-docx-path="w:body/w:p[37]">
<g data-docx-line="0" data-docx-baseline="2602">
<text data-docx-path="w:body/w:p[37]/w:r[1]" x="300 319.2688 342.4988" y="2602" font-family="Calibri" font-size="46" fill="#000000">L22</text>
</g>
</g>
<g data-docx-path="w:body/w:p[38]">
<g data-docx-line="0" data-docx-baseline="2658">
<text data-docx-path="w:body/w:p[38]/w:r[1]" x="300 319.2688 342.4988" y="2658" font-family="Calibri" font-size="46" fill="#000000">L23</text>
</g>
</g>
<g data-docx-path="w:body/w:p[39]">
<g data-docx-line="0" data-docx-baseline="2714">
<text data-docx-path="w:body/w:p[39]/w:r[1]" x="300 319.2688 342.4988" y="2714" font-family="Calibri" font-size="46" fill="#000000">L24</text>
</g>
</g>
<g data-docx-path="w:body/w:p[40]">
<g data-docx-line="0" data-docx-baseline="2770">
<text data-docx-path="w:body/w:p[40]/w:r[1]" x="300 319.2688 342.4988" y="2770" font-family="Calibri" font-size="46" fill="#000000">L25</text>
</g>
</g>
<g data-docx-path="w:body/w:p[41]">
<g data-docx-line="0" data-docx-baseline="2826">
<text data-docx-path="w:body/w:p[41]/w:r[1]" x="300 319.2688 342.4988" y="2826" font-family="Calibri" font-size="46" fill="#000000">L26</text>
</g>
</g>
<g data-docx-path="w:body/w:p[42]">
<g data-docx-line="0" data-docx-baseline="2882">
<text data-docx-path="w:body/w:p[42]/w:r[1]" x="300 319.2688 342.4988" y="2882" font-family="Calibri" font-size="46" fill="#000000">L27</text>
</g>
</g>
<g data-docx-path="w:body/w:p[43]">
<g data-docx-line="0" data-docx-baseline="2938">
<text data-docx-path="w:body/w:p[43]/w:r[1]" x="300 319.2688 342.4988" y="2938" font-family="Calibri" font-size="46" fill="#000000">L28</text>
</g>
</g>
<g data-docx-path="w:body/w:p[44]">
<g data-docx-line="0" data-docx-baseline="2994">
<text data-docx-path="w:body/w:p[44]/w:r[1]" x="300 319.2688 342.4988" y="2994" font-family="Calibri" font-size="46" fill="#000000">L29</text>
</g>
</g>
<g data-docx-path="w:body/w:p[45]">
<g data-docx-line="0" data-docx-baseline="3050">
<text data-docx-path="w:body/w:p[45]/w:r[1]" x="300 319.2688 342.4988" y="3050" font-family="Calibri" font-size="46" fill="#000000">L30</text>
</g>
</g>
<g data-docx-path="w:body/w:p[46]">
<g data-docx-line="0" data-docx-baseline="3106">
<text data-docx-path="w:body/w:p[46]/w:r[1]" x="300 319.2688 342.4988" y="3106" font-family="Calibri" font-size="46" fill="#000000">L31</text>
</g>
</g>
<g data-docx-path="w:body/w:p[47]">
<g data-docx-line="0" data-docx-baseline="3162">
<text data-docx-path="w:body/w:p[47]/w:r[1]" x="300 319.2688 342.4988" y="3162" font-family="Calibri" font-size="46" fill="#000000">L32</text>
</g>
</g>
</svg>
